<?xml version="1.0" encoding="UTF-8" standalone="no"?>
<!-- Generator: Adobe Illustrator 16.0.3, SVG Export Plug-In . SVG Version: 6.00 Build 0)  -->

<svg
   xmlns:dc="http://purl.org/dc/elements/1.1/"
   xmlns:cc="http://creativecommons.org/ns#"
   xmlns:rdf="http://www.w3.org/1999/02/22-rdf-syntax-ns#"
   xmlns:svg="http://www.w3.org/2000/svg"
   xmlns="http://www.w3.org/2000/svg"
   xmlns:sodipodi="http://sodipodi.sourceforge.net/DTD/sodipodi-0.dtd"
   xmlns:inkscape="http://www.inkscape.org/namespaces/inkscape"
   version="1.0"
   id="Ebene_1"
   x="0px"
   y="0px"
   width="17.38895"
   height="16.605595"
   viewBox="0 0 17.388951 16.605595"
   enable-background="new 0 0 21.775 20.762"
   xml:space="preserve"
   sodipodi:docname="star_filled.svg"
   inkscape:version="0.92.1 r15371"><metadata
     id="metadata3687"><rdf:RDF><cc:Work
         rdf:about=""><dc:format>image/svg+xml</dc:format><dc:type
           rdf:resource="http://purl.org/dc/dcmitype/StillImage" /></cc:Work></rdf:RDF></metadata><defs
     id="defs3685" /><sodipodi:namedview
     pagecolor="#ffffff"
     bordercolor="#666666"
     borderopacity="1"
     objecttolerance="10"
     gridtolerance="10"
     guidetolerance="10"
     inkscape:pageopacity="0"
     inkscape:pageshadow="2"
     inkscape:window-width="1366"
     inkscape:window-height="706"
     id="namedview3683"
     showgrid="false"
     inkscape:zoom="32.326029"
     inkscape:cx="8.6942983"
     inkscape:cy="8.3023622"
     inkscape:window-x="-8"
     inkscape:window-y="-8"
     inkscape:window-maximized="1"
     inkscape:current-layer="Ebene_1" /><path
     d="m 8.6936879,-0.00276843 c -0.182,0 -0.363,0.14 -0.501,0.419 l -1.859,3.76600003 c -0.276,0.56 -1.008,1.091 -1.624,1.18 l -4.154,0.604 c -0.618,0.09 -0.757,0.519 -0.31,0.955 l 3.007,2.931 c 0.446,0.4370004 0.726,1.2950004 0.62,1.9090004 l -0.71,4.14 c -0.077,0.446 0.094,0.708 0.404,0.708 0.118,0 0.255,-0.038 0.407,-0.117 l 3.717,-1.956 c 0.276,-0.145 0.641,-0.216 1.003,-0.216 0.364,0 0.729,0.072 1.004,0.216 l 3.7180001,1.956 c 0.149,0.079 0.289,0.117 0.406,0.117 0.312,0 0.481,-0.262 0.405,-0.708 l -0.711,-4.14 c -0.104,-0.614 0.174,-1.474 0.619,-1.9090004 l 3.009,-2.931 c 0.446,-0.437 0.307,-0.865 -0.311,-0.955 l -4.154,-0.604 c -0.617,-0.089 -1.349,-0.62 -1.624,-1.18 L 9.1966879,0.41623157 c -0.139,-0.279 -0.32,-0.419 -0.503,-0.419 z"
     id="path3680"
     inkscape:connector-curvature="0"
     style="fill:#393a3b" /><path
     style="fill:#ffff00;stroke:#000000;stroke-width:0.03866294;stroke-opacity:1"
     d="M 3.396299,16.556844 C 3.2824504,16.507706 3.2205979,16.420299 3.1822496,16.254361 3.155339,16.137916 3.2267089,15.649082 3.5340405,13.844839 3.7460932,12.599948 3.919591,11.524868 3.919591,11.455773 c 0,-0.266077 -0.126735,-0.734266 -0.2908809,-1.074584 L 3.4584754,10.028248 1.8235463,8.4342586 C 0.92433531,7.5575644 0.14956012,6.7768784 0.10182368,6.699401 -0.06604989,6.4269374 0.02805464,6.1554088 0.32986155,6.0414219 0.38628134,6.0201132 1.4040832,5.862121 2.5916436,5.690328 3.8071174,5.5144974 4.8644889,5.3424883 5.0108575,5.2967798 5.1538652,5.2521214 5.4000278,5.1307925 5.5578859,5.0271603 6.0970692,4.6731918 6.1084559,4.6552314 7.2832668,2.3056091 8.2142167,0.44370917 8.3633335,0.16797597 8.481818,0.08935567 c 0.1511179,-0.1002741 0.2979764,-0.0930396 0.4639553,0.0228553 0.06641,0.046371 0.4293709,0.7328317 1.1598887,2.19367553 1.174792,2.3492791 1.186239,2.3673328 1.72538,2.7212738 0.157859,0.1036322 0.404021,0.2247875 0.547029,0.2692341 0.144537,0.044922 1.218386,0.2194891 2.417948,0.3930668 1.186865,0.1717404 2.204667,0.3299062 2.261782,0.3514797 0.30324,0.1145374 0.397244,0.3849055 0.229304,0.6595117 -0.04774,0.078056 -0.82174,0.8578889 -1.720008,1.732962 l -1.633214,1.5910424 -0.173192,0.354837 c -0.168143,0.344491 -0.291354,0.800972 -0.291354,1.079428 0,0.07072 0.166279,1.093601 0.369508,2.273077 0.203229,1.179476 0.371308,2.243332 0.373508,2.364123 0.0064,0.353942 -0.16337,0.524901 -0.480285,0.483515 -0.08606,-0.01124 -0.934769,-0.434613 -2.126461,-1.060778 -1.090778,-0.57314 -2.0789231,-1.075103 -2.1958784,-1.115474 -0.3044413,-0.105087 -1.1276909,-0.104768 -1.4305289,5.53e-4 -0.1169553,0.04068 -1.1050823,0.543101 -2.1958381,1.116502 -2.0195754,1.061674 -2.173802,1.128648 -2.3870626,1.036604 z"
     id="path3691"
     inkscape:connector-curvature="0" /></svg>