<?xml version="1.0" encoding="UTF-8" standalone="no"?>
<!-- Generator: Adobe Illustrator 16.0.3, SVG Export Plug-In . SVG Version: 6.00 Build 0)  -->

<svg
   xmlns:dc="http://purl.org/dc/elements/1.1/"
   xmlns:cc="http://creativecommons.org/ns#"
   xmlns:rdf="http://www.w3.org/1999/02/22-rdf-syntax-ns#"
   xmlns:svg="http://www.w3.org/2000/svg"
   xmlns="http://www.w3.org/2000/svg"
   xmlns:sodipodi="http://sodipodi.sourceforge.net/DTD/sodipodi-0.dtd"
   xmlns:inkscape="http://www.inkscape.org/namespaces/inkscape"
   version="1.0"
   id="Ebene_1"
   x="0px"
   y="0px"
   width="17.396826"
   height="16.607891"
   viewBox="0 0 17.396826 16.607892"
   enable-background="new 0 0 21.775 20.762"
   xml:space="preserve"
   sodipodi:docname="star_hollow.svg"
   inkscape:version="0.92.1 r15371"><metadata
     id="metadata9"><rdf:RDF><cc:Work
         rdf:about=""><dc:format>image/svg+xml</dc:format><dc:type
           rdf:resource="http://purl.org/dc/dcmitype/StillImage" /></cc:Work></rdf:RDF></metadata><defs
     id="defs7" /><sodipodi:namedview
     pagecolor="#ffffff"
     bordercolor="#666666"
     borderopacity="1"
     objecttolerance="10"
     gridtolerance="10"
     guidetolerance="10"
     inkscape:pageopacity="0"
     inkscape:pageshadow="2"
     inkscape:window-width="1366"
     inkscape:window-height="706"
     id="namedview5"
     showgrid="false"
     inkscape:zoom="32.309562"
     inkscape:cx="8.7014419"
     inkscape:cy="8.3102334"
     inkscape:window-x="-8"
     inkscape:window-y="-8"
     inkscape:window-maximized="1"
     inkscape:current-layer="Ebene_1" /><path
     d="m 14.142469,9.8424241 3.009,-2.931 c 0.397,-0.388 0.308,-0.758 -0.148,-0.9 -0.008,-0.003 -0.012,-0.011 -0.02,-0.014 -0.068,-0.03 -0.174,-0.07 -0.328,-0.092 l -4.053,-0.589 c -0.279,-0.04 -0.589,-0.184 -0.86,-0.379 -0.142,-0.104 -0.272,-0.221 -0.386,-0.345 -0.105,-0.117 -0.194,-0.241 -0.255,-0.365 L 9.2884689,0.55142411 c -0.02,-0.04 -0.044,-0.07 -0.066,-0.107 l -0.019,-0.038 c -0.009,-0.018 -0.021,-0.023 -0.03,-0.04 -0.012,-0.015 -0.023,-0.032 -0.035,-0.046 -0.129,-0.208 -0.28,-0.333 -0.438,-0.333 -0.15,0 -0.294,0.119 -0.419,0.309 -0.01,0.011 -0.018,0.025 -0.027,0.036 -0.017,0.029 -0.039,0.041 -0.055,0.074 l -0.026,0.052 c -0.02,0.033 -0.041,0.053 -0.06,0.093 l -1.814,3.67399999 c -0.062,0.126 -0.152,0.252 -0.259,0.371 -0.112,0.121 -0.239,0.236 -0.376,0.336 -0.274,0.199 -0.586,0.344 -0.867,0.385 l -4.054,0.588 c -0.055,0.008 -0.119,0.033 -0.18,0.051 v 0 c 0,0 0,0 -0.001,0 -0.05,0.015 -0.095,0.025 -0.142,0.048 -0.475,0.138 -0.572,0.513 -0.168,0.907 l 3.007,2.931 c 0.431,0.4219999 0.699,1.2329999 0.622,1.8419999 l -0.687,4.005 c -0.004,0.025 0,0.045 -0.002,0.068 l -0.022,0.133 c -0.077,0.446 0.094,0.708 0.404,0.708 0.118,0 0.255,-0.038 0.407,-0.117 l 3.717,-1.955 c 0.276,-0.145 0.641,-0.216 1.003,-0.216 0.364,0 0.729,0.072 1.004,0.216 l 3.7180001,1.955 c 0.149,0.079 0.289,0.117 0.406,0.117 0.312,0 0.481,-0.262 0.405,-0.708 l -0.03,-0.174 c -10e-4,-0.012 0.002,-0.019 0,-0.03 l -0.682,-3.962 c -0.093,-0.613 0.181,-1.452 0.62,-1.8819999 z m -1.619,1.9749999 0.574,3.35 -3.003,-1.581 c -0.3860001,-0.203 -0.8810001,-0.315 -1.3950001,-0.315 -0.511,0 -1.005,0.112 -1.393,0.315 l -3.007,1.57 0.572,-3.34 c 0.153,-0.884 -0.217,-2.0229999 -0.861,-2.6499999 l -2.424,-2.373 3.354,-0.487 c 0.887,-0.128 1.857,-0.833 2.255,-1.639 l 1.495,-3.067 1.5130001,3.068 c 0.397,0.806 1.367,1.51 2.255,1.637 l 3.355,0.496 -2.432,2.367 c -0.638,0.627 -1.007,1.7659999 -0.858,2.6489999 z"
     id="path2"
     inkscape:connector-curvature="0"
     style="fill:#393a3b" /><path
     style="fill:#ffff00;stroke:#000000;stroke-width:0.03093296;stroke-opacity:1"
     d="M 3.4657809,16.572767 C 3.2497442,16.51789 3.1518497,16.307963 3.1810742,15.962237 3.1917452,15.836 3.3545636,14.837577 3.5428928,13.743519 3.7312219,12.649461 3.8930607,11.670803 3.9025342,11.568725 3.9238885,11.338634 3.8490223,10.888997 3.7418016,10.603385 3.5618287,10.123977 3.5301023,10.088029 1.7778721,8.3780911 0.12335969,6.7635138 0.01546648,6.6447439 0.01546648,6.4380173 c 0,-0.1236062 0.07709075,-0.2525611 0.19258105,-0.3221435 C 0.43590338,5.978592 0.75045299,5.9187584 2.8392946,5.615358 5.1004406,5.2869304 5.1259235,5.2815704 5.5135881,5.052839 5.610317,4.9957668 5.8046839,4.8365171 5.9455146,4.6989508 L 6.2015702,4.4488309 7.1890258,2.4563113 C 7.7321266,1.3604255 8.2333383,0.38821481 8.3028299,0.29584301 c 0.1579928,-0.2100125 0.262786,-0.2801155 0.4191184,-0.2803754 0.1091398,-1.816e-4 0.1409293,0.019195 0.2898313,0.1766562 0.1508257,0.1594958 0.2641681,0.372648 1.1544234,2.17101249 0.542947,1.0967839 1.038915,2.0625305 1.102152,2.1461039 0.242687,0.3207365 0.773686,0.6741192 1.172129,0.7800578 0.09909,0.026347 1.098873,0.180342 2.22174,0.3422126 1.122866,0.1618703 2.097021,0.3091094 2.164789,0.3271974 0.160694,0.042891 0.388952,0.1594381 0.454626,0.2321278 0.139087,0.1539462 0.132406,0.3598196 -0.01831,0.5640984 -0.04176,0.056607 -0.782379,0.7901791 -1.645814,1.6301609 -0.951835,0.925981 -1.622327,1.6026 -1.703096,1.7186599 -0.149554,0.214901 -0.304161,0.589306 -0.368324,0.891953 -0.08352,0.393959 -0.06204,0.591123 0.281409,2.582837 0.422954,2.452782 0.426442,2.475607 0.402625,2.63443 -0.04065,0.27105 -0.254498,0.412412 -0.530472,0.350657 -0.09081,-0.02032 -0.946528,-0.451926 -2.1462,-1.082497 -1.30843,-0.687736 -2.064383,-1.06775 -2.1962403,-1.10404 -0.3127078,-0.08606 -1.0557061,-0.07864 -1.3455838,0.01345 -0.123683,0.03929 -1.0521618,0.50896 -2.1653073,1.095317 -1.7158696,0.903845 -2.1629653,1.11994 -2.2880471,1.105881 -0.017559,-0.002 -0.059184,-0.01051 -0.092502,-0.01898 z m 2.6539252,-2.349409 c 0.8019541,-0.419641 1.4308827,-0.728694 1.5930475,-0.782818 0.5230349,-0.174568 1.2043931,-0.198254 1.7681989,-0.06147 0.3277258,0.07951 0.5513515,0.187127 2.2396185,1.077789 0.746916,0.394042 1.364548,0.709923 1.372515,0.701956 0.008,-0.008 -0.11487,-0.763317 -0.27297,-1.678557 -0.317239,-1.836488 -0.346595,-2.1244 -0.26483,-2.59734 0.09853,-0.569916 0.364113,-1.1569969 0.699488,-1.5462489 0.09357,-0.108605 0.709993,-0.721021 1.369823,-1.360925 0.659831,-0.6399025 1.193603,-1.16955 1.18616,-1.1769924 C 15.803314,6.7913089 15.011199,6.6688991 14.0505,6.5267297 13.089802,6.3845602 12.245843,6.2526404 12.175037,6.2335743 11.925527,6.1663882 11.550566,5.989112 11.282851,5.8117622 10.952917,5.5931939 10.525826,5.1733529 10.360888,4.9054494 10.293745,4.7963918 9.8964351,4.0123467 9.4779764,3.1631271 9.0595181,2.3139074 8.7054783,1.618896 8.6912216,1.6186572 8.676965,1.618419 8.3273597,2.3115009 7.9143212,3.1588405 7.5012829,4.0061799 7.1006646,4.7984006 7.0240585,4.9193305 6.8555069,5.185405 6.4091431,5.623323 6.107775,5.818277 5.810023,6.0108919 5.4725753,6.1630908 5.1863622,6.233862 5.0559634,6.2661052 4.2115226,6.3984553 3.3098268,6.5279732 2.408131,6.6574913 1.6495001,6.7704455 1.6239804,6.7789827 c -0.031248,0.010454 0.3935674,0.4515767 1.3009713,1.3509114 1.2101173,1.199356 1.3617052,1.360598 1.4880856,1.582853 0.3163872,0.5564039 0.4654779,1.0857829 0.4660786,1.6549129 3.248e-4,0.309256 -0.036576,0.569909 -0.2824739,1.995176 -0.1555671,0.901696 -0.2907859,1.678526 -0.3004862,1.72629 l -0.017637,0.08684 0.2580452,-0.129611 c 0.1419248,-0.07129 0.8543387,-0.441636 1.5831421,-0.823 z"
     id="path11"
     inkscape:connector-curvature="0" /></svg>